{
  "accessors": [
    {
      "bufferView": 2,
      "componentType": 5126,
      "count": 6458,
      "max": [
        0.05379319190979004,
        1.2531870603561401,
        0.0872943103313446
      ],
      "min": [
        -1.1608511209487915,
        -0.8628025054931641,
        -0.15665890276432037
      ],
      "type": "VEC3"
    },
    {
      "bufferView": 2,
      "byteOffset": 77496,
      "componentType": 5126,
      "count": 6458,
      "max": [
        1.0,
        1.0,
        1.0
      ],
      "min": [
        -1.0,
        -1.0,
        -1.0
      ],
      "type": "VEC3"
    },
    {
      "bufferView": 3,
      "componentType": 5126,
      "count": 6458,
      "max": [
        0.9999749660491943,
        1.0,
        0.9999998211860657,
        1.0
      ],
      "min": [
        -1.0,
        -0.9999996423721313,
        -0.9999983906745911,
        -1.0
      ],
      "type": "VEC4"
    },
    {
      "bufferView": 1,
      "componentType": 5126,
      "count": 6458,
      "max": [
        0.9878100752830505,
        0.9956762194633484
      ],
      "min": [
        0.01619276963174343,
        0.004973769187927246
      ],
      "type": "VEC2"
    },
    {
      "bufferView": 0,
      "componentType": 5125,
      "count": 16518,
      "type": "SCALAR"
    },
    {
      "bufferView": 2,
      "byteOffset": 154992,
      "componentType": 5126,
      "count": 6520,
      "max": [
        0.6062660217285156,
        0.9912222027778625,
        0.18388572335243225
      ],
      "min": [
        -0.6307695508003235,
        -1.0579947233200073,
        -0.2737298905849457
      ],
      "type": "VEC3"
    },
    {
      "bufferView": 2,
      "byteOffset": 233232,
      "componentType": 5126,
      "count": 6520,
      "max": [
        0.9999998211860657,
        0.9999957084655762,
        0.9999529123306274
      ],
      "min": [
        -0.9999997019767761,
        -0.9999958276748657,
        -1.0
      ],
      "type": "VEC3"
    },
    {
      "bufferView": 3,
      "byteOffset": 103328,
      "componentType": 5126,
      "count": 6520,
      "max": [
        0.9998993873596191,
        0.9999470114707947,
        0.9999818205833435,
        1.0
      ],
      "min": [
        -0.9999872446060181,
        -0.9999971985816956,
        -0.9999822974205017,
        -1.0
      ],
      "type": "VEC4"
    },
    {
      "bufferView": 1,
      "byteOffset": 51664,
      "componentType": 5126,
      "count": 6520,
      "max": [
        0.9878100752830505,
        0.9956762194633484
      ],
      "min": [
        0.01619276963174343,
        0.004973769187927246
      ],
      "type": "VEC2"
    },
    {
      "bufferView": 0,
      "byteOffset": 66072,
      "componentType": 5125,
      "count": 16422,
      "type": "SCALAR"
    }
  ],
  "asset": {
    "extras": {
      "author": "Ret.ouchs (https://sketchfab.com/ret.ouchs)",
      "license": "CC-BY-4.0 (http://creativecommons.org/licenses/by/4.0/)",
      "source": "https://sketchfab.com/3d-models/rusty-old-gate-59a45c1917aa4d1c9cc5d8f9ae01c58b",
      "title": "Rusty old gate"
    },
    "generator": "Sketchfab-14.87.0",
    "version": "2.0"
  },
  "bufferViews": [
    {
      "buffer": 0,
      "byteLength": 131760,
      "name": "floatBufferViews",
      "target": 34963
    },
    {
      "buffer": 0,
      "byteLength": 103824,
      "byteOffset": 131760,
      "byteStride": 8,
      "name": "floatBufferViews",
      "target": 34962
    },
    {
      "buffer": 0,
      "byteLength": 311472,
      "byteOffset": 235584,
      "byteStride": 12,
      "name": "floatBufferViews",
      "target": 34962
    },
    {
      "buffer": 0,
      "byteLength": 207648,
      "byteOffset": 547056,
      "byteStride": 16,
      "name": "floatBufferViews",
      "target": 34962
    }
  ],
  "buffers": [
    {
      "byteLength": 754704,
      "uri": "scene.bin"
    }
  ],
  "images": [
    {
      "uri": "textures/gate_baseColor.jpeg"
    },
    {
      "uri": "textures/gate_metallicRoughness.png"
    },
    {
      "uri": "textures/gate_normal.png"
    }
  ],
  "materials": [
    {
      "doubleSided": true,
      "name": "gate",
      "normalTexture": {
        "index": 2
      },
      "occlusionTexture": {
        "index": 1
      },
      "pbrMetallicRoughness": {
        "baseColorTexture": {
          "index": 0
        },
        "metallicRoughnessTexture": {
          "index": 1
        }
      }
    }
  ],
  "meshes": [
    {
      "name": "Object_0",
      "primitives": [
        {
          "attributes": {
            "NORMAL": 1,
            "POSITION": 0,
            "TANGENT": 2,
            "TEXCOORD_0": 3
          },
          "indices": 4,
          "material": 0,
          "mode": 4
        }
      ]
    },
    {
      "name": "Object_1",
      "primitives": [
        {
          "attributes": {
            "NORMAL": 6,
            "POSITION": 5,
            "TANGENT": 7,
            "TEXCOORD_0": 8
          },
          "indices": 9,
          "material": 0,
          "mode": 4
        }
      ]
    }
  ],
  "nodes": [
    {
      "children": [
        1
      ],
      "matrix": [
        1.0,
        0.0,
        0.0,
        0.0,
        0.0,
        2.220446049250313e-16,
        -1.0,
        0.0,
        0.0,
        1.0,
        2.220446049250313e-16,
        0.0,
        0.0,
        0.0,
        0.0,
        1.0
      ],
      "name": "Sketchfab_model"
    },
    {
      "children": [
        2
      ],
      "name": "root"
    },
    {
      "children": [
        3,
        5
      ],
      "matrix": [
        1.0,
        0.0,
        0.0,
        0.0,
        0.0,
        2.220446049250313e-16,
        1.0,
        0.0,
        0.0,
        -1.0,
        2.220446049250313e-16,
        0.0,
        0.0,
        0.0,
        0.0,
        1.0
      ],
      "name": "GLTF_SceneRootNode"
    },
    {
      "children": [
        4
      ],
      "matrix": [
        1.0,
        0.0,
        0.0,
        0.0,
        0.0,
        1.0,
        0.0,
        0.0,
        0.0,
        0.0,
        1.0,
        0.0,
        2.6087071895599365,
        0.9078699350357056,
        0.33735835552215576,
        1.0
      ],
      "name": "Plane_0"
    },
    {
      "mesh": 0,
      "name": "Object_4"
    },
    {
      "children": [
        6
      ],
      "matrix": [
        1.0,
        0.0,
        0.0,
        0.0,
        0.0,
        0.9806739961449908,
        -0.19564895421395545,
        0.0,
        0.0,
        0.19564895421395545,
        0.9806739961449908,
        0.0,
        3.6070313453674316,
        1.0779746770858765,
        0.13149765133857727,
        1.0
      ],
      "name": "Plane.001_1"
    },
    {
      "mesh": 1,
      "name": "Object_6"
    }
  ],
  "samplers": [
    {
      "magFilter": 9729,
      "minFilter": 9987,
      "wrapS": 10497,
      "wrapT": 10497
    }
  ],
  "scene": 0,
  "scenes": [
    {
      "name": "Sketchfab_Scene",
      "nodes": [
        0
      ]
    }
  ],
  "textures": [
    {
      "sampler": 0,
      "source": 0
    },
    {
      "sampler": 0,
      "source": 1
    },
    {
      "sampler": 0,
      "source": 2
    }
  ]
}
